<?xml version="1.0" encoding="UTF-8" standalone="no"?>
<!DOCTYPE svg PUBLIC "-//W3C//DTD SVG 1.1//EN" "http://www.w3.org/Graphics/SVG/1.1/DTD/svg11.dtd">
<svg width="100%" height="100%" viewBox="0 0 792 178" version="1.1" xmlns="http://www.w3.org/2000/svg" xmlns:xlink="http://www.w3.org/1999/xlink" xml:space="preserve" xmlns:serif="http://www.serif.com/" style="fill-rule:evenodd;clip-rule:evenodd;stroke-linejoin:round;stroke-miterlimit:1.41421;">
    <g id="Layer1" transform="matrix(0.352486,0,0,0.352486,-229.266,-158.472)">
        <g transform="matrix(-1,-6.91487e-05,6.91487e-05,-1,3488.99,1927.23)">
            <path d="M1717.42,971.544C1717.42,971.544 1543.62,1204.06 1543.62,1303.71C1543.62,1399.64 1621.5,1477.52 1717.42,1477.52C1813.35,1477.52 1891.23,1399.64 1891.23,1303.71C1891.23,1204.06 1717.42,971.544 1717.42,971.544Z" style="fill:rgb(255,2,2);"/>
        </g>
        <g transform="matrix(1,0,0,1,-75.2799,-324.366)">
            <text x="1449.05px" y="1170.11px" style="font-family:'Futura-Medium', 'Futura', sans-serif;font-weight:500;font-size:83.333px;fill-opacity:0.564706;">w<tspan x="1512.28px 1558.38px " y="1170.11px 1170.11px ">eb</tspan> – code – design</text>
        </g>
        <g transform="matrix(1,0,0,1,-119.572,0)">
            <text x="756.447px" y="695.699px" style="font-family:'Futura-Medium', 'Futura', sans-serif;font-weight:500;font-size:150px;">R<tspan x="844.192px 978.225px " y="695.699px 695.699px ">OB</tspan>ER<tspan x="1240.73px 1313.09px " y="695.699px 695.699px ">T </tspan>DI MAR<tspan x="1901.88px 2006.25px 2140.28px " y="695.699px 695.699px 695.699px ">COB</tspan>ERARDIN<tspan x="2886.33px " y="695.699px ">O</tspan></text>
        </g>
    </g>
</svg>
